<?xml version="1.0" encoding="utf-8"?>
<!-- Generator: Adobe Illustrator 22.0.1, SVG Export Plug-In . SVG Version: 6.00 Build 0)  -->
<svg version="1.1" id="Layer_1" xmlns="http://www.w3.org/2000/svg" xmlns:xlink="http://www.w3.org/1999/xlink" x="0px" y="0px"
	 viewBox="0 0 687.5 119.3" style="enable-background:new 0 0 687.5 119.3;" xml:space="preserve">
<style type="text/css">
	.st0{fill:#030303;}
	.st1{fill:#FFFFFF;}
</style>
<g>
	<g>
		<g>
			<circle class="st0" cx="532.8" cy="54.8" r="54.8"/>
		</g>
	</g>
	<g>
		<g>
			<path class="st1" d="M505.3,69V47.6c0-9.8,10.6-15.9,20.4-15.9c1.7,0,7.9,0.3,13.2,3.5c4.8,2.9,7.2,7.3,7.2,13v8.9
				c0,6.4-6.1,12-13.1,12v5.3c9.8,0,18.4-8.1,18.4-17.2v-8.9c0-7.5-3.4-13.6-9.8-17.5c-6.5-4-13.8-4.3-15.9-4.3
				c-6.1,0-12.4,1.9-17.1,5.3c-5.5,4-8.6,9.6-8.6,15.8V69c0,3,0.6,10.7,6,17.4c5.7,7,14.7,10.5,26.7,10.5v-5.3
				C507.3,91.7,505.3,74.3,505.3,69z"/>
		</g>
		<g>
			<path class="st1" d="M532.7,12.7v5.3c8.3,0,27.6,2.5,27.6,25.8v13c0,11.1-9.7,23-25.3,23c-7.9,0-16.3-3-16.3-9.7
				c0-3.5,2.4-5.8,6.1-5.8c8.3,0,13.1-4.9,13.1-13.4c0-5-2.2-7.9-4.1-9.5c-2.2-1.9-5.3-3-8.5-3c-6.8,0-11.9,4.3-11.9,9.9h0
				c0,0.2,0,0.4,0,0.7c0,3.9,3.1,7,7,7s7-3.1,7-7c0-2.1-0.9-4-2.4-5.3c0.1,0,0.2,0,0.3,0c2,0,3.8,0.6,5.1,1.7
				c1.5,1.3,2.2,3.1,2.2,5.5c0,5.6-2.4,8.1-7.9,8.1c-6.7,0-11.3,4.5-11.3,11c0,8.8,8.9,14.9,21.6,14.9c18.9,0,30.5-14.7,30.5-28.2
				v-13C565.6,36.4,563.2,12.7,532.7,12.7z M520.4,50.6c-0.9,0-1.7-0.8-1.7-1.7c0-0.9,0.8-1.7,1.7-1.7c0.9,0,1.7,0.8,1.7,1.7
				C522.1,49.9,521.4,50.6,520.4,50.6z"/>
		</g>
	</g>
	<g>
		<g>
			<path class="st0" d="M109.6,25.6h39v10h-28v14.8h23.7v10h-23.7v24.5h-11V25.6z"/>
		</g>
		<g>
			<path class="st0" d="M165,83.1c-3.4-1.9-6-4.6-7.9-8c-1.9-3.4-2.8-7.4-2.8-11.9c0-4.5,0.9-8.5,2.8-11.9c1.9-3.4,4.5-6.1,7.9-8
				s7.2-2.9,11.6-2.9c4.3,0,8.2,1,11.6,2.9s6,4.6,7.9,8c1.9,3.4,2.8,7.4,2.8,11.9c0,4.5-0.9,8.5-2.8,11.9c-1.9,3.4-4.5,6.1-7.9,8
				c-3.4,1.9-7.2,2.9-11.6,2.9C172.2,86,168.4,85.1,165,83.1z M184.8,72.7c2-2.3,3-5.5,3-9.5c0-4.1-1-7.3-3-9.5
				c-2-2.3-4.8-3.4-8.3-3.4c-3.5,0-6.3,1.1-8.3,3.4c-2,2.3-3,5.5-3,9.5c0,4.1,1,7.3,3,9.5c2,2.3,4.8,3.4,8.3,3.4
				C180.1,76.2,182.8,75,184.8,72.7z"/>
		</g>
		<g>
			<path class="st0" d="M210.4,41.4h7.9l0.9,3.7c2.3-1.6,4.5-2.9,6.8-3.7c2.3-0.8,4.7-1.2,7.3-1.2c5.1,0,9,1.4,11.8,4.3
				c2.7,2.9,4.1,7,4.1,12.4v27.9h-10.8V58.7c0-3.1-0.6-5.3-1.8-6.6c-1.2-1.3-3.2-1.9-6.2-1.9c-3.2,0-6.3,0.8-9.4,2.5v32.2h-10.8
				V41.4z"/>
		</g>
		<g>
			<path class="st0" d="M275.9,81.8c-2.8-2.8-4.2-7-4.2-12.5V51.1H259v-9.7h12.7V29.1l10.8-4.7v17h16.4v9.7h-16.4v16.5
				c0,3.1,0.6,5.3,1.8,6.6c1.2,1.3,3.2,1.9,6.2,1.9c3.6,0,7.1-1,10.4-3.1l2.7,9.1c-4.4,2.6-9.4,3.8-15.1,3.8
				C282.9,86,278.7,84.6,275.9,81.8z"/>
		</g>
		<g>
			<path class="st0" d="M325.3,81.8c-2.8-2.8-4.2-7-4.2-12.5V29.8h-16.8v-9.8h27.6v47.6c0,3.1,0.6,5.3,1.8,6.6
				c1.2,1.3,3.2,1.9,6.2,1.9c3.6,0,7.1-1,10.4-3.1l2.7,9.1c-4.4,2.6-9.4,3.8-15.1,3.8C332.3,86,328.1,84.6,325.3,81.8z"/>
		</g>
		<g>
			<path class="st0" d="M366.2,79.9c-4.3-4.1-6.5-9.6-6.5-16.7c0-4.5,0.9-8.5,2.8-12c1.9-3.5,4.5-6.1,7.9-8
				c3.4-1.9,7.3-2.8,11.7-2.8c4.3,0,8,0.9,11.2,2.7c3.2,1.8,5.7,4.3,7.5,7.6c1.8,3.3,2.6,7,2.6,11.3c0,1.8-0.2,3.5-0.5,5h-32.3
				c1.2,6.6,5.6,10,13.4,10c2.4,0,4.6-0.3,6.8-1c2.2-0.7,4.4-1.7,6.6-3.2l4,7.9c-2.9,1.9-5.7,3.3-8.4,4.1c-2.8,0.9-5.8,1.3-9.1,1.3
				C376.5,86,370.5,84,366.2,79.9z M392.9,58.8c-0.5-3-1.7-5.4-3.5-6.9c-1.9-1.6-4.3-2.4-7.4-2.4c-3,0-5.4,0.8-7.4,2.4
				c-1.9,1.6-3.2,3.9-3.9,6.9H392.9z"/>
		</g>
		<g>
			<path class="st0" d="M427,81.8c-2.8-2.8-4.2-7-4.2-12.5V51.1h-12.7v-9.7h12.7V29.1l10.8-4.7v17H450v9.7h-16.4v16.5
				c0,3.1,0.6,5.3,1.8,6.6c1.2,1.3,3.2,1.9,6.2,1.9c3.6,0,7.1-1,10.4-3.1l2.7,9.1c-4.4,2.6-9.4,3.8-15.1,3.8
				C434,86,429.8,84.6,427,81.8z"/>
		</g>
	</g>
</g>
</svg>
