<?xml version="1.0" encoding="utf-8"?>
<!-- Generator: Adobe Illustrator 22.0.1, SVG Export Plug-In . SVG Version: 6.00 Build 0)  -->
<svg version="1.1" id="Layer_1" xmlns="http://www.w3.org/2000/svg" xmlns:xlink="http://www.w3.org/1999/xlink" x="0px" y="0px"
	 viewBox="0 0 128 128" style="enable-background:new 0 0 128 128;" xml:space="preserve">
<style type="text/css">
	.st0{fill:url(#SVGID_1_);}
	.st1{fill:#F9F9F9;stroke:#D3D3D3;stroke-width:0.25;stroke-miterlimit:10;}
	.st2{fill:#3F3F3F;stroke:#D3D3D3;stroke-width:0.25;stroke-miterlimit:10;}
	.st3{fill:url(#SVGID_2_);}
</style>
<radialGradient id="SVGID_1_" cx="203.7919" cy="-1371.5256" r="74.5103" gradientTransform="matrix(0.6869 0 0 -0.2146 -76.965 -184.3599)" gradientUnits="userSpaceOnUse">
	<stop  offset="0" style="stop-color:#3D3D3D"/>
	<stop  offset="0.3039" style="stop-color:#606060;stop-opacity:0.5824"/>
	<stop  offset="0.3653" style="stop-color:#686868;stop-opacity:0.498"/>
	<stop  offset="1" style="stop-color:#686868;stop-opacity:0"/>
</radialGradient>
<path class="st0" d="M114.2,110c0.1,8.8-22.7,16-50.9,16.1c-28.3,0-51.3-7.1-51.4-15.9c0-0.1,0-0.1,0-0.2
	c-0.1-8.8,22.7-16,50.9-16.1c28.3,0,51.3,7.1,51.4,15.9C114.2,109.9,114.2,109.9,114.2,110z"/>
<g>
	
		<image style="overflow:visible;opacity:0.19;" width="110" height="110" xlink:href="812ECEA9CEB1C5E7.png"  transform="matrix(1 0 0 1 10 13)">
	</image>
	<g>
		<g>
			<g>
				<g>
					<circle class="st1" cx="63.7" cy="66.1" r="51.4"/>
				</g>
			</g>
			<g>
				<g>
					<path class="st2" d="M39.7,78.8V59.7c0-8.7,9.5-14.2,18.2-14.2c1.6,0,7,0.2,11.8,3.1c4.3,2.6,6.4,6.5,6.4,11.6v7.9
						c0,5.7-5.5,10.7-11.7,10.7v4.7c8.7,0,16.4-7.2,16.4-15.4v-7.9c0-6.7-3-12.1-8.7-15.6c-5.8-3.5-12.3-3.8-14.2-3.8
						c-5.5,0-11,1.7-15.3,4.7c-4.9,3.5-7.7,8.5-7.7,14.1v19.1c0,2.7,0.5,9.6,5.3,15.5c5.1,6.2,13.1,9.4,23.8,9.4V99
						C41.5,99,39.7,83.5,39.7,78.8z"/>
				</g>
				<g>
					<path class="st2" d="M64.2,28.5v4.7c7.4,0,24.6,2.2,24.6,23v11.6c0,9.9-8.6,20.5-22.5,20.5c-7,0-14.6-2.7-14.6-8.6
						c0-3.1,2.1-5.1,5.4-5.1c7.4,0,11.7-4.4,11.7-11.9c0-4.4-2-7-3.6-8.5c-2-1.7-4.7-2.6-7.6-2.6c-6,0-10.6,3.8-10.6,8.8h0
						c0,0.2,0,0.4,0,0.6c0,3.4,2.8,6.2,6.2,6.2s6.2-2.8,6.2-6.2c0-1.9-0.8-3.6-2.2-4.7c0.1,0,0.2,0,0.3,0c1.8,0,3.4,0.5,4.6,1.5
						c1.3,1.1,2,2.8,2,4.9c0,5-2.2,7.2-7,7.2c-6,0-10.1,4-10.1,9.8c0,7.8,7.9,13.3,19.3,13.3c16.8,0,27.2-13.1,27.2-25.2V56.2
						C93.5,49.7,91.4,28.5,64.2,28.5z M53.2,62.4c-0.8,0-1.5-0.7-1.5-1.5c0-0.8,0.7-1.5,1.5-1.5c0.8,0,1.5,0.7,1.5,1.5
						C54.7,61.7,54.1,62.4,53.2,62.4z"/>
				</g>
			</g>
		</g>
	</g>
</g>
<g>
	<g>
		<linearGradient id="SVGID_2_" gradientUnits="userSpaceOnUse" x1="64.8993" y1="115.7606" x2="62.0854" y2="0.3918">
			<stop  offset="0" style="stop-color:#FFFFFF;stop-opacity:0"/>
			<stop  offset="0.3726" style="stop-color:#FDFDFD;stop-opacity:3.726428e-02"/>
			<stop  offset="0.5069" style="stop-color:#F6F6F6;stop-opacity:5.068948e-02"/>
			<stop  offset="0.6026" style="stop-color:#EBEBEB;stop-opacity:6.025776e-02"/>
			<stop  offset="0.68" style="stop-color:#DADADA;stop-opacity:6.799926e-02"/>
			<stop  offset="0.7463" style="stop-color:#C4C4C4;stop-opacity:7.462608e-02"/>
			<stop  offset="0.805" style="stop-color:#A8A8A8;stop-opacity:8.049740e-02"/>
			<stop  offset="0.8581" style="stop-color:#888888;stop-opacity:8.581012e-02"/>
			<stop  offset="0.9069" style="stop-color:#626262;stop-opacity:9.069102e-02"/>
			<stop  offset="0.9523" style="stop-color:#373737;stop-opacity:9.523237e-02"/>
			<stop  offset="0.9926" style="stop-color:#090909;stop-opacity:9.926198e-02"/>
			<stop  offset="1" style="stop-color:#000000;stop-opacity:0.1"/>
		</linearGradient>
		<circle class="st3" cx="63.7" cy="66.1" r="51.4"/>
	</g>
</g>
</svg>
