<?xml version="1.0" encoding="utf-8"?>
<!-- Generator: Adobe Illustrator 25.3.1, SVG Export Plug-In . SVG Version: 6.00 Build 0)  -->
<svg version="1.1" id="Layer_1" xmlns="http://www.w3.org/2000/svg" xmlns:xlink="http://www.w3.org/1999/xlink" x="0px" y="0px"
	 viewBox="0 0 687.5 119.3" style="enable-background:new 0 0 687.5 119.3;" xml:space="preserve">
<style type="text/css">
	.st0{fill:#030303;}
	.st1{fill:#FFFFFF;}
</style>
<g>
	<g>
		<g>
			<circle class="st0" cx="132.8" cy="54.8" r="54.8"/>
		</g>
	</g>
	<g>
		<g>
			<path class="st1" d="M105.3,69V47.6c0-9.8,10.6-15.9,20.4-15.9c1.7,0,7.9,0.3,13.2,3.5c4.8,2.9,7.2,7.3,7.2,13v8.9
				c0,6.4-6.1,12-13.1,12v5.3c9.8,0,18.4-8.1,18.4-17.2v-8.9c0-7.5-3.4-13.6-9.8-17.5c-6.5-4-13.8-4.3-15.9-4.3
				c-6.1,0-12.4,1.9-17.1,5.3c-5.5,4-8.6,9.6-8.6,15.8V69c0,3,0.6,10.7,6,17.4c5.7,7,14.7,10.5,26.7,10.5v-5.3
				C107.3,91.7,105.3,74.3,105.3,69z"/>
		</g>
		<g>
			<path class="st1" d="M132.7,12.7V18c8.3,0,27.6,2.5,27.6,25.8v13c0,11.1-9.7,23-25.3,23c-7.9,0-16.3-3-16.3-9.7
				c0-3.5,2.4-5.8,6.1-5.8c8.3,0,13.1-4.9,13.1-13.4c0-5-2.2-7.9-4.1-9.5c-2.2-1.9-5.3-3-8.5-3c-6.8,0-11.9,4.3-11.9,9.9l0,0
				c0,0.2,0,0.4,0,0.7c0,3.9,3.1,7,7,7s7-3.1,7-7c0-2.1-0.9-4-2.4-5.3c0.1,0,0.2,0,0.3,0c2,0,3.8,0.6,5.1,1.7
				c1.5,1.3,2.2,3.1,2.2,5.5c0,5.6-2.4,8.1-7.9,8.1c-6.7,0-11.3,4.5-11.3,11c0,8.8,8.9,14.9,21.6,14.9c18.9,0,30.5-14.7,30.5-28.2
				v-13C165.6,36.4,163.2,12.7,132.7,12.7z M120.4,50.6c-0.9,0-1.7-0.8-1.7-1.7s0.8-1.7,1.7-1.7s1.7,0.8,1.7,1.7
				C122.1,49.9,121.4,50.6,120.4,50.6z"/>
		</g>
	</g>
	<g>
		<g>
			<path d="M218.7,65.5c0,0.9,0.2,1.5,0.7,2c0.5,0.5,1.2,0.7,2.2,0.7c1.3,0,2.7-0.1,4-0.4c1.3-0.3,2.6-0.7,3.9-1.3
				c1.3-0.6,2.6-1.3,3.9-2.3V71h-2.3c-0.7,1.7-1.7,3.1-2.9,4.2c-1.2,1.2-2.7,2-4.3,2.7c-1.7,0.6-3.5,0.9-5.4,0.9
				c-2.4,0-4.5-0.5-6.3-1.5c-1.8-1-3.2-2.4-4.1-4.1c-1-1.8-1.5-3.8-1.5-6v-3c0-1.7,0.3-3.3,0.9-4.7c0.6-1.4,1.4-2.7,2.5-3.7
				c1.1-1,2.4-1.8,4-2.4c1.6-0.6,3.3-0.8,5.3-0.8c1.9,0,3.7,0,5.5,0c1.8,0,3.5,0,5.1,0s3.1,0,4.5,0c0.5,0,0.8,0.5,1.1,1.4
				s0.4,2,0.4,3.1c0.1,1.1,0.1,2.1,0.1,2.8c-1.6,0-3.2,0-4.8,0c-1.6,0-3.2,0-4.8,0s-3.2,0-4.9,0c-0.5,0-0.9,0.1-1.3,0.2
				c-0.4,0.1-0.7,0.3-0.9,0.6c-0.2,0.2-0.4,0.5-0.5,0.8c-0.1,0.3-0.2,0.7-0.2,1.1V65.5z M244.1,50.8c0,1.2,0,2.5,0,3.7
				c0,1.2,0,2.4,0,3.7c0,1.2,0,2.5,0,3.7c0,1.2,0,2.5,0,3.6c0,0.3,0,0.6,0.1,0.9c0.1,0.3,0.2,0.5,0.4,0.6c0.2,0.2,0.4,0.3,0.6,0.4
				c0.2,0.1,0.6,0.1,0.9,0.1c0.2,0,0.3,0,0.4,0c0.1,0,0.3,0,0.4,0h1.6c0,1.6,0,3.2,0,4.8c0,1.6,0,3.2,0,4.8c0,0.3-0.1,0.5-0.2,0.6
				c-0.2,0.2-0.4,0.2-0.6,0.2c-0.3,0-1,0-2.2,0c-1.2,0-2.3,0-3.2,0c-1.6,0-3-0.3-4.2-0.8c-1.2-0.5-2.3-1.2-3.3-2.2
				c-0.9-0.9-1.7-2.1-2.1-3.4c-0.5-1.3-0.7-2.7-0.7-4.3c0-1.6,0-3.2,0-4.9c0-1.6,0-3.2,0-4.9c0-0.9,0-1.8,0-2.6c0-0.8,0-1.7,0-2.5
				c0-0.9,0-1.7,0-2.6c0-1.3-0.3-2.4-0.8-3.2c-0.5-0.8-1.3-1.3-2.5-1.7c-1.2-0.3-2.7-0.5-4.6-0.5c-1.5,0-3,0.1-4.4,0.2
				c-1.4,0.1-2.8,0.3-4.2,0.6c-1.3,0.3-2.7,0.6-4.1,1.1h-1.6c0-1.6,0-3.2,0-4.8c0-1.6,0-3.2,0-4.7c0-0.2,0-0.4,0.1-0.5
				c0.1-0.1,0.1-0.2,0.2-0.3c0.3-0.3,1.2-0.7,2.8-1.1c1.5-0.4,3.3-0.8,5.3-1.1c2-0.3,4-0.4,6-0.4c3.5,0,6.5,0.3,9,1
				c2.5,0.6,4.6,1.7,6.2,3s2.8,3.2,3.6,5.3C243.7,45.1,244.1,47.7,244.1,50.8z"/>
			<path d="M268.9,78.1c-1.3,0-2.6,0-3.8,0c-1.2,0-2.4,0-3.6,0s-2.5,0-3.8,0c-0.2,0-0.3,0-0.4-0.1c-0.1-0.1-0.2-0.2-0.3-0.3
				c-0.1-0.1-0.1-0.3-0.1-0.5c0-4.3,0-8.6,0-12.9c0-4.3,0-8.6,0-13c0-4.3,0-8.7,0-13c0-4.3,0-8.6,0-12.9c0-1.5,0-2.9,0-4.2
				c0-1.3,0-2.6,0-3.7c1.5,0,2.9,0,4.1,0c1.2,0,2.4,0,3.6,0c1.2,0,2.3,0,3.5,0c0.2,0,0.4,0,0.5,0.1c0.1,0.1,0.2,0.2,0.3,0.3
				c0.1,0.1,0.1,0.3,0.1,0.5c0,5,0,9.9,0,14.9c0,5,0,10,0,15c0,5,0,10,0,15C268.9,68.1,268.9,73.1,268.9,78.1z M267.3,52.1h3.2
				c0.3-1.2,0.7-2.3,1-3.2c0.4-0.9,0.7-1.8,1.1-2.6c0.4-0.8,0.8-1.6,1.3-2.3c0.5-0.7,1-1.5,1.6-2.2c0.6-0.8,1.2-1.6,1.8-2.3
				c0.5-0.7,1.1-1.5,1.7-2.3c0.6-0.8,1.3-1.8,2.1-2.8h13.4c0.2,0,0.3,0,0.4,0.1c0.1,0.1,0.2,0.1,0.3,0.2c0.1,0.1,0.1,0.2,0.1,0.4
				s0,0.3-0.1,0.4c-0.1,0.1-0.2,0.4-0.6,0.8c-1.7,1.9-3.3,3.7-4.9,5.5c-1.6,1.8-3.2,3.6-4.8,5.4c-1.6,1.8-3.1,3.5-4.6,5.2
				c-1.5,1.7-3,3.4-4.5,5.1c-1.5,1.7-3,3.4-4.4,5c-1.4,1.6-2.9,3.3-4.3,4.9V52.1z M285.4,78.1c-0.7,0-1.2-0.1-1.5-0.2
				c-0.3-0.2-0.6-0.5-1-1c-0.2-0.3-0.5-0.7-0.8-1.2c-0.3-0.5-0.7-1.1-1.1-1.7c-0.4-0.6-0.8-1.3-1.3-2c-0.5-0.7-0.9-1.4-1.4-2.1
				c-0.6-1-1.2-1.9-1.6-2.8c-0.4-0.9-0.8-1.8-1.1-2.9c-0.3-1-0.6-2.2-0.8-3.4h-3.5l7.4-9.3c2.3,3,4.5,6,6.7,9c2.2,3,4.4,5.9,6.6,8.8
				c2.2,2.9,4.4,5.9,6.6,8.8c-1.3,0-2.5,0-3.8,0c-1.2,0-2.6,0-4,0C289.3,78.1,287.5,78.1,285.4,78.1z"/>
			<path d="M316.5,34.4c0.2,0,0.4,0,0.5,0.1c0.1,0.1,0.2,0.2,0.3,0.3c0.1,0.1,0.1,0.3,0.1,0.5c0,2.4,0,4.8,0,7.3c0,2.5,0,5,0,7.4
				c0,2.5,0,4.8,0,7.2c0,2.3,0,4.5,0,6.6c0,0.9,0.2,1.6,0.7,2.1c0.5,0.5,1.2,0.8,2,0.8c1.2,0,2.4-0.1,3.5-0.3c1.1-0.2,2.1-0.6,3-1
				c0.9-0.5,1.8-1.1,2.7-1.8s1.6-1.6,2.3-2.6v10.2h-2.9c-0.9,1.7-1.9,3.1-3.1,4.3c-1.1,1.2-2.4,2.1-3.9,2.7
				c-1.5,0.6-3.2,0.9-5.2,0.9c-1.6,0-3.1-0.3-4.5-0.8c-1.4-0.6-2.6-1.4-3.6-2.5c-1-1.1-1.8-2.4-2.4-3.9c-0.6-1.5-0.8-3.2-0.8-5.1
				c0-2.4,0-4.9,0-7.3c0-2.4,0-4.9,0-7.3s0-4.9,0-7.3c0-1.7,0-3.5,0-5.3s0-3.5,0-5.3c1.9,0,3.8,0,5.7,0
				C312.8,34.4,314.7,34.4,316.5,34.4z M341.6,34.4c0.2,0,0.4,0,0.5,0.1c0.1,0.1,0.2,0.2,0.3,0.3c0.1,0.1,0.1,0.3,0.1,0.5
				c0,3.9,0,7.8,0,11.6c0,3.9,0,7.7,0,11.6c0,3.9,0,7.8,0,11.6c0,1,0,1.9,0,2.8c0,0.9,0,1.8,0,2.7c0,0.9,0,1.7,0,2.4
				c-1.3,0-2.7,0-4,0c-1.3,0-2.5,0-3.8,0c-1.2,0-2.4,0-3.5,0c-0.2,0-0.3,0-0.4-0.1c-0.1-0.1-0.2-0.2-0.3-0.3
				c-0.1-0.1-0.1-0.3-0.1-0.5c0-4.7,0-9.5,0-14.3c0-4.8,0-9.5,0-14.3c0-4.7,0-9.5,0-14.2c1.3,0,2.6,0,3.8,0c1.2,0,2.4,0,3.7,0
				C339.1,34.4,340.4,34.4,341.6,34.4z"/>
			<path d="M353,67.5h33.9c0.2,0,0.4,0,0.5,0.1c0.1,0.1,0.2,0.2,0.3,0.3c0.1,0.1,0.1,0.3,0.1,0.5c0,1.1,0,2.2,0,3.2c0,1,0,2.1,0,3.1
				c0,1.1,0,2.1,0,3.3h-33.9c-0.3,0-0.5-0.1-0.6-0.2c-0.2-0.2-0.2-0.4-0.2-0.6c0-1.1,0-2.2,0-3.3c0-1.1,0-2.1,0-3.1
				C353,69.8,353,68.7,353,67.5z M362.7,72.3v-6.1c0-0.9,0-1.8,0-2.8s0-1.8,0-2.8c0-0.9,0-1.9,0-2.8c0-1.5,0-2.9,0-4.3s0-2.9,0-4.3
				c0-1.5,0-2.9,0-4.3h-1.6c-1.2,0-2.3,0-3.4,0c-1.1,0-2.2,0-3.4,0c-0.3,0-0.5-0.1-0.6-0.2c-0.2-0.2-0.2-0.4-0.2-0.6
				c0-1.6,0-3.2,0-4.8c0-1.6,0-3.2,0-4.8c0.6,0,1.3,0,2.1,0s1.7,0,2.6,0s1.8,0,2.9,0c1,0,2.1,0,3.2,0c1.1,0,2.3,0,3.4,0
				c1.2,0,2.3,0,3.4,0c0.5,1.5,1,2.7,1.3,3.8c0.3,1.1,0.7,2.2,1.1,3.3c0.4,1.1,0.8,2.4,1.3,3.9c0,2.3,0,4.6,0,6.8s0,4.4,0,6.6
				s0,4.4,0,6.6c0,2.2,0,4.5,0,6.8H362.7z M372.2,43h3.1c1.2-2.8,3-5,5.1-6.8c2.2-1.8,4.9-2.6,8.2-2.6c1.2,0,2.3,0.1,3,0.3
				c0.8,0.2,1.3,0.5,1.7,0.8c0.1,0.1,0.2,0.1,0.2,0.3c0,0.1,0,0.3,0,0.5c0,2,0,4,0,5.9c0,1.9,0,3.9,0,5.9H392
				c-1.3-0.4-2.4-0.6-3.4-0.8c-1-0.1-2.1-0.2-3.4-0.2c-1.5,0-2.9,0.2-4.4,0.6c-1.5,0.4-2.9,1-4.1,1.7c-1.3,0.8-2.4,1.7-3.3,2.8
				L372.2,43z"/>
			<path d="M413.6,34.4c0.2,0,0.4,0,0.5,0.1c0.1,0.1,0.2,0.2,0.3,0.3c0.1,0.1,0.1,0.3,0.1,0.5c0,2.4,0,4.8,0,7.3c0,2.5,0,5,0,7.4
				c0,2.5,0,4.8,0,7.2c0,2.3,0,4.5,0,6.6c0,0.9,0.2,1.6,0.7,2.1c0.5,0.5,1.2,0.8,2,0.8c1.2,0,2.4-0.1,3.5-0.3c1.1-0.2,2.1-0.6,3-1
				c0.9-0.5,1.8-1.1,2.7-1.8s1.6-1.6,2.3-2.6v10.2h-2.9c-0.9,1.7-1.9,3.1-3.1,4.3c-1.1,1.2-2.4,2.1-3.9,2.7
				c-1.5,0.6-3.2,0.9-5.2,0.9c-1.6,0-3.1-0.3-4.5-0.8c-1.4-0.6-2.6-1.4-3.6-2.5c-1-1.1-1.8-2.4-2.4-3.9c-0.6-1.5-0.8-3.2-0.8-5.1
				c0-2.4,0-4.9,0-7.3c0-2.4,0-4.9,0-7.3s0-4.9,0-7.3c0-1.7,0-3.5,0-5.3s0-3.5,0-5.3c1.9,0,3.8,0,5.7,0S411.7,34.4,413.6,34.4z
				 M438.7,34.4c0.2,0,0.4,0,0.5,0.1c0.1,0.1,0.2,0.2,0.3,0.3c0.1,0.1,0.1,0.3,0.1,0.5c0,3.9,0,7.8,0,11.6c0,3.9,0,7.7,0,11.6
				c0,3.9,0,7.8,0,11.6c0,1,0,1.9,0,2.8c0,0.9,0,1.8,0,2.7c0,0.9,0,1.7,0,2.4c-1.3,0-2.7,0-4,0c-1.3,0-2.5,0-3.8,0
				c-1.2,0-2.4,0-3.5,0c-0.2,0-0.3,0-0.4-0.1c-0.1-0.1-0.2-0.2-0.3-0.3c-0.1-0.1-0.1-0.3-0.1-0.5c0-4.7,0-9.5,0-14.3
				c0-4.8,0-9.5,0-14.3c0-4.7,0-9.5,0-14.2c1.3,0,2.6,0,3.8,0c1.2,0,2.4,0,3.7,0C436.2,34.4,437.4,34.4,438.7,34.4z"/>
			<path d="M478.4,65.5c0,0.9,0.2,1.5,0.7,2c0.5,0.5,1.2,0.7,2.2,0.7c1.3,0,2.7-0.1,4-0.4c1.3-0.3,2.6-0.7,3.9-1.3
				c1.3-0.6,2.6-1.3,3.9-2.3V71h-2.3c-0.7,1.7-1.7,3.1-2.9,4.2c-1.2,1.2-2.7,2-4.3,2.7c-1.7,0.6-3.5,0.9-5.4,0.9
				c-2.4,0-4.5-0.5-6.3-1.5s-3.2-2.4-4.1-4.1c-1-1.8-1.5-3.8-1.5-6v-3c0-1.7,0.3-3.3,0.9-4.7c0.6-1.4,1.4-2.7,2.5-3.7
				c1.1-1,2.4-1.8,4-2.4c1.6-0.6,3.3-0.8,5.3-0.8c1.9,0,3.7,0,5.5,0s3.5,0,5.1,0c1.6,0,3.1,0,4.5,0c0.5,0,0.8,0.5,1.1,1.4
				c0.2,0.9,0.4,2,0.4,3.1c0.1,1.1,0.1,2.1,0.1,2.8c-1.6,0-3.2,0-4.8,0c-1.6,0-3.2,0-4.8,0c-1.6,0-3.2,0-4.9,0
				c-0.5,0-0.9,0.1-1.3,0.2c-0.4,0.1-0.7,0.3-0.9,0.6c-0.2,0.2-0.4,0.5-0.5,0.8c-0.1,0.3-0.2,0.7-0.2,1.1V65.5z M503.8,50.8
				c0,1.2,0,2.5,0,3.7c0,1.2,0,2.4,0,3.7c0,1.2,0,2.5,0,3.7c0,1.2,0,2.5,0,3.6c0,0.3,0,0.6,0.1,0.9c0.1,0.3,0.2,0.5,0.4,0.6
				c0.2,0.2,0.4,0.3,0.6,0.4c0.2,0.1,0.6,0.1,0.9,0.1c0.2,0,0.3,0,0.4,0c0.1,0,0.3,0,0.4,0h1.6c0,1.6,0,3.2,0,4.8c0,1.6,0,3.2,0,4.8
				c0,0.3-0.1,0.5-0.2,0.6c-0.2,0.2-0.4,0.2-0.6,0.2c-0.3,0-1,0-2.2,0c-1.2,0-2.3,0-3.2,0c-1.6,0-3-0.3-4.2-0.8
				c-1.2-0.5-2.3-1.2-3.3-2.2c-0.9-0.9-1.7-2.1-2.1-3.4c-0.5-1.3-0.7-2.7-0.7-4.3c0-1.6,0-3.2,0-4.9c0-1.6,0-3.2,0-4.9
				c0-0.9,0-1.8,0-2.6c0-0.8,0-1.7,0-2.5c0-0.9,0-1.7,0-2.6c0-1.3-0.3-2.4-0.8-3.2c-0.5-0.8-1.3-1.3-2.5-1.7
				c-1.2-0.3-2.7-0.5-4.6-0.5c-1.5,0-3,0.1-4.4,0.2c-1.4,0.1-2.8,0.3-4.2,0.6c-1.3,0.3-2.7,0.6-4.1,1.1h-1.6c0-1.6,0-3.2,0-4.8
				c0-1.6,0-3.2,0-4.7c0-0.2,0-0.4,0.1-0.5c0.1-0.1,0.1-0.2,0.2-0.3c0.3-0.3,1.2-0.7,2.8-1.1c1.5-0.4,3.3-0.8,5.3-1.1
				c2-0.3,4-0.4,6-0.4c3.5,0,6.5,0.3,9,1c2.5,0.6,4.6,1.7,6.2,3c1.6,1.4,2.8,3.2,3.6,5.3C503.4,45.1,503.8,47.7,503.8,50.8z"/>
			<path d="M516.4,34.4c1.3,0,2.6,0,3.8,0s2.5,0,3.7,0s2.5,0,3.8,0c0.2,0,0.4,0,0.5,0.1c0.1,0.1,0.2,0.2,0.3,0.3
				c0.1,0.1,0.1,0.3,0.1,0.5c0,4.9,0,9.8,0,14.7c0,4.9,0,9.8,0,14.8c0,4.9,0,9.9,0,14.8s0,9.8,0,14.7c-1.3,0-2.5,0-3.8,0
				s-2.4,0-3.7,0c-1.2,0-2.5,0-3.8,0c-0.2,0-0.3,0-0.4-0.1c-0.1-0.1-0.2-0.2-0.3-0.3s-0.1-0.3-0.1-0.4c0-4.2,0-8.4,0-12.7
				s0-8.5,0-12.7c0-4.3,0-8.5,0-12.7c0-4.2,0-8.5,0-12.7c0-1.6,0-3,0-4.4C516.4,36.8,516.4,35.6,516.4,34.4z M541.6,33.4
				c2.7,0,5,0.6,7,1.9c2,1.2,3.5,3,4.6,5.4c1.1,2.3,1.6,5.2,1.6,8.5v14.1c0,2.5-0.3,4.7-0.9,6.6c-0.6,1.9-1.5,3.6-2.6,4.9
				c-1.1,1.3-2.5,2.4-4.1,3.1c-1.6,0.7-3.5,1.1-5.5,1.1c-1.5,0-3-0.3-4.4-0.8c-1.4-0.6-2.8-1.4-4-2.4c-1.2-1-2.3-2.2-3.2-3.4h-2.4
				v-9.1c1.4,1.2,3,2.2,4.8,2.9c1.8,0.7,3.5,1.1,5.1,1.1c1.2,0,2.2-0.2,2.9-0.7c0.8-0.5,1.3-1.1,1.7-2c0.4-0.9,0.6-2,0.6-3.3v-10
				c0-1.1-0.1-2.1-0.4-2.9c-0.2-0.8-0.6-1.4-1-1.8c-0.4-0.4-1-0.8-1.6-1c-0.6-0.2-1.4-0.3-2.2-0.3c-1,0-2.1,0.3-3.3,0.8
				c-1.2,0.5-2.3,1.2-3.5,2.1c-1.1,0.9-2.2,2-3.1,3.2V40.8h2.3c0.8-1.6,1.8-2.9,3-4c1.2-1.1,2.5-1.9,4-2.5
				C538.5,33.7,540,33.4,541.6,33.4z"/>
			<path d="M564.9,34.4c1.3,0,2.6,0,3.8,0s2.5,0,3.7,0s2.5,0,3.8,0c0.2,0,0.4,0,0.5,0.1c0.1,0.1,0.2,0.2,0.3,0.3
				c0.1,0.1,0.1,0.3,0.1,0.5c0,4.9,0,9.8,0,14.7c0,4.9,0,9.8,0,14.8c0,4.9,0,9.9,0,14.8s0,9.8,0,14.7c-1.3,0-2.5,0-3.8,0
				s-2.4,0-3.7,0c-1.2,0-2.5,0-3.8,0c-0.2,0-0.3,0-0.4-0.1c-0.1-0.1-0.2-0.2-0.3-0.3s-0.1-0.3-0.1-0.4c0-4.2,0-8.4,0-12.7
				s0-8.5,0-12.7c0-4.3,0-8.5,0-12.7c0-4.2,0-8.5,0-12.7c0-1.6,0-3,0-4.4C564.9,36.8,564.9,35.6,564.9,34.4z M590.1,33.4
				c2.7,0,5,0.6,7,1.9c2,1.2,3.5,3,4.6,5.4c1.1,2.3,1.6,5.2,1.6,8.5v14.1c0,2.5-0.3,4.7-0.9,6.6c-0.6,1.9-1.5,3.6-2.6,4.9
				c-1.1,1.3-2.5,2.4-4.1,3.1c-1.6,0.7-3.5,1.1-5.5,1.1c-1.5,0-3-0.3-4.4-0.8c-1.4-0.6-2.8-1.4-4-2.4c-1.2-1-2.3-2.2-3.2-3.4h-2.4
				v-9.1c1.4,1.2,3,2.2,4.8,2.9c1.8,0.7,3.5,1.1,5.1,1.1c1.2,0,2.2-0.2,2.9-0.7c0.8-0.5,1.3-1.1,1.7-2c0.4-0.9,0.6-2,0.6-3.3v-10
				c0-1.1-0.1-2.1-0.4-2.9c-0.2-0.8-0.6-1.4-1-1.8c-0.4-0.4-1-0.8-1.6-1c-0.6-0.2-1.4-0.3-2.2-0.3c-1,0-2.1,0.3-3.3,0.8
				c-1.2,0.5-2.3,1.2-3.5,2.1c-1.1,0.9-2.2,2-3.1,3.2V40.8h2.3c0.8-1.6,1.8-2.9,3-4c1.2-1.1,2.5-1.9,4-2.5
				C587,33.7,588.5,33.4,590.1,33.4z"/>
		</g>
	</g>
</g>
</svg>
